# xmcd
#
# Track frame offsets:
#	150
#	21730
#	54310
#	78165
#	107275
#	136770
#	154187
#	175875
#	189355
#	214172
#
# Disc length: 3086 seconds
#
# Revision: 0
# Processed by: cddbd v1.5.1PL0 Copyright (c) Steve Scherf et al.
# Submitted via: audiograbber 1.80
#
DISCID=7a0c0c0a
DTITLE=Billy Paul - Super Hits
DYEAR=1900
DGENRE=
TTITLE0=Me And Mrs. Jones
TTITLE1=Let's Make A Baby
TTITLE2=Am I Black Enough For You
TTITLE3=Let's Stay Together
TTITLE4=Your Song
TTITLE5=Let's Fall In Love All Over Again
TTITLE6=The Whole Town's Talking
TTITLE7=Thanks For Saving My Life
TTITLE8=When Love Is New
TTITLE9=Ebony Woman
EXTD=
EXTT0=
EXTT1=
EXTT2=
EXTT3=
EXTT4=
EXTT5=
EXTT6=
EXTT7=
EXTT8=
EXTT9=
PLAYORDER=
